<svg xmlns="http://www.w3.org/2000/svg" xmlns:xlink="http://www.w3.org/1999/xlink" viewBox="0 0 145 115" width="145" height="115" preserveAspectRatio="xMidYMid meet" style="width: 100%; height: 100%; transform: translate3d(0px, 0px, 0px); content-visibility: visible;"><defs><clipPath id="__lottie_element_1393"><rect width="145" height="115" x="0" y="0"></rect></clipPath><linearGradient id="__lottie_element_1397" spreadMethod="pad" gradientUnits="userSpaceOnUse" x1="49.03810119628906" y1="85.09480285644531" x2="38.801998138427734" y2="62.83259963989258"><stop offset="0%" stop-color="rgb(150,89,0)"></stop><stop offset="23%" stop-color="rgb(153,92,0)"></stop><stop offset="42%" stop-color="rgb(164,101,0)"></stop><stop offset="59%" stop-color="rgb(181,116,0)"></stop><stop offset="76%" stop-color="rgb(206,137,0)"></stop><stop offset="92%" stop-color="rgb(237,163,0)"></stop><stop offset="100%" stop-color="rgb(255,179,0)"></stop></linearGradient><linearGradient id="__lottie_element_1398" spreadMethod="pad" gradientUnits="userSpaceOnUse" x1="64.3458023071289" y1="79.22239685058594" x2="76.22000122070312" y2="57.64979934692383"><stop offset="0%" stop-color="rgb(102,55,8)"></stop><stop offset="27%" stop-color="rgb(107,58,7)"></stop><stop offset="59%" stop-color="rgb(121,68,5)"></stop><stop offset="92%" stop-color="rgb(144,85,1)"></stop><stop offset="100%" stop-color="rgb(150,89,0)"></stop></linearGradient><linearGradient id="__lottie_element_1399" spreadMethod="pad" gradientUnits="userSpaceOnUse" x1="15.064599990844727" y1="51.98789978027344" x2="26.891700744628906" y2="30.500900268554688"><stop offset="0%" stop-color="rgb(102,55,8)"></stop><stop offset="27%" stop-color="rgb(107,58,7)"></stop><stop offset="59%" stop-color="rgb(121,68,5)"></stop><stop offset="92%" stop-color="rgb(144,85,1)"></stop><stop offset="100%" stop-color="rgb(150,89,0)"></stop></linearGradient><linearGradient id="__lottie_element_1400" spreadMethod="pad" gradientUnits="userSpaceOnUse" x1="69.92739868164062" y1="72.95670318603516" x2="78.96920013427734" y2="52.2401008605957"><stop offset="0%" stop-color="rgb(150,89,0)"></stop><stop offset="23%" stop-color="rgb(153,92,0)"></stop><stop offset="42%" stop-color="rgb(164,101,0)"></stop><stop offset="59%" stop-color="rgb(181,116,0)"></stop><stop offset="76%" stop-color="rgb(206,137,0)"></stop><stop offset="92%" stop-color="rgb(237,163,0)"></stop><stop offset="100%" stop-color="rgb(255,179,0)"></stop></linearGradient><linearGradient id="__lottie_element_1401" spreadMethod="pad" gradientUnits="userSpaceOnUse" x1="127.58100128173828" y1="79.59020233154297" x2="110.47200012207031" y2="31.44179916381836"><stop offset="0%" stop-color="rgb(102,55,8)"></stop><stop offset="27%" stop-color="rgb(107,58,7)"></stop><stop offset="59%" stop-color="rgb(121,68,5)"></stop><stop offset="92%" stop-color="rgb(144,85,1)"></stop><stop offset="100%" stop-color="rgb(150,89,0)"></stop></linearGradient><linearGradient id="__lottie_element_1402" spreadMethod="pad" gradientUnits="userSpaceOnUse" x1="102.66600036621094" y1="59.995601654052734" x2="94.64800262451172" y2="40.02000045776367"><stop offset="0%" stop-color="rgb(150,89,0)"></stop><stop offset="23%" stop-color="rgb(153,92,0)"></stop><stop offset="42%" stop-color="rgb(164,101,0)"></stop><stop offset="59%" stop-color="rgb(181,116,0)"></stop><stop offset="76%" stop-color="rgb(206,137,0)"></stop><stop offset="92%" stop-color="rgb(237,163,0)"></stop><stop offset="100%" stop-color="rgb(255,179,0)"></stop></linearGradient><linearGradient id="__lottie_element_1403" spreadMethod="pad" gradientUnits="userSpaceOnUse" x1="23.687700271606445" y1="45.70180130004883" x2="120.45999908447266" y2="45.70180130004883"><stop offset="0%" stop-color="rgb(255,212,130)"></stop><stop offset="30%" stop-color="rgb(254,213,134)"></stop><stop offset="60%" stop-color="rgb(249,215,147)"></stop><stop offset="91%" stop-color="rgb(242,219,167)"></stop><stop offset="100%" stop-color="rgb(239,221,175)"></stop></linearGradient><linearGradient id="__lottie_element_1404" spreadMethod="pad" gradientUnits="userSpaceOnUse" x1="105.79000091552734" y1="50.39360046386719" x2="105.79000091552734" y2="20.921899795532227"><stop offset="0%" stop-color="rgb(255,212,130)"></stop><stop offset="6%" stop-color="rgb(253,213,135)"></stop><stop offset="40%" stop-color="rgb(245,217,157)"></stop><stop offset="71%" stop-color="rgb(241,220,170)"></stop><stop offset="100%" stop-color="rgb(239,221,175)"></stop></linearGradient><linearGradient id="__lottie_element_1405" spreadMethod="pad" gradientUnits="userSpaceOnUse" x1="24.01490020751953" y1="52.41579818725586" x2="72.79570007324219" y2="52.41579818725586"><stop offset="0%" stop-color="rgb(239,221,175)"></stop><stop offset="9%" stop-color="rgb(242,219,167)"></stop><stop offset="40%" stop-color="rgb(249,215,147)"></stop><stop offset="70%" stop-color="rgb(254,213,134)"></stop><stop offset="100%" stop-color="rgb(255,212,130)"></stop></linearGradient><linearGradient id="__lottie_element_1406" spreadMethod="pad" gradientUnits="userSpaceOnUse" x1="72.79570007324219" y1="51.23699951171875" x2="120.45899963378906" y2="51.23699951171875"><stop offset="0%" stop-color="rgb(255,212,130)"></stop><stop offset="30%" stop-color="rgb(254,213,134)"></stop><stop offset="60%" stop-color="rgb(249,215,147)"></stop><stop offset="91%" stop-color="rgb(242,219,167)"></stop><stop offset="100%" stop-color="rgb(239,221,175)"></stop></linearGradient><linearGradient id="__lottie_element_1407" spreadMethod="pad" gradientUnits="userSpaceOnUse" x1="41.252201080322266" y1="50.40959930419922" x2="41.252201080322266" y2="21.18280029296875"><stop offset="0%" stop-color="rgb(255,212,130)"></stop><stop offset="6%" stop-color="rgb(253,213,135)"></stop><stop offset="40%" stop-color="rgb(245,217,157)"></stop><stop offset="71%" stop-color="rgb(241,220,170)"></stop><stop offset="100%" stop-color="rgb(239,221,175)"></stop></linearGradient><linearGradient id="__lottie_element_1408" spreadMethod="pad" gradientUnits="userSpaceOnUse" x1="28.811500549316406" y1="42.77450180053711" x2="115.77300262451172" y2="42.77450180053711"><stop offset="0%" stop-color="rgb(255,212,130)"></stop><stop offset="24%" stop-color="rgb(255,213,134)"></stop><stop offset="48%" stop-color="rgb(254,218,147)"></stop><stop offset="73%" stop-color="rgb(253,225,168)"></stop><stop offset="97%" stop-color="rgb(252,235,196)"></stop><stop offset="100%" stop-color="rgb(252,236,200)"></stop></linearGradient><linearGradient id="__lottie_element_1409" spreadMethod="pad" gradientUnits="userSpaceOnUse" x1="28.811399459838867" y1="42.904998779296875" x2="72.50029754638672" y2="42.904998779296875"><stop offset="0%" stop-color="rgb(252,236,200)"></stop><stop offset="3%" stop-color="rgb(252,235,196)"></stop><stop offset="27%" stop-color="rgb(253,225,168)"></stop><stop offset="52%" stop-color="rgb(254,218,147)"></stop><stop offset="76%" stop-color="rgb(255,213,134)"></stop><stop offset="100%" stop-color="rgb(255,212,130)"></stop></linearGradient><linearGradient id="__lottie_element_1410" spreadMethod="pad" gradientUnits="userSpaceOnUse" x1="72.50039672851562" y1="38.813499450683594" x2="110.697998046875" y2="38.813499450683594"><stop offset="0%" stop-color="rgb(255,231,184)"></stop><stop offset="32%" stop-color="rgb(255,232,188)"></stop><stop offset="65%" stop-color="rgb(255,237,201)"></stop><stop offset="99%" stop-color="rgb(255,244,221)"></stop><stop offset="100%" stop-color="rgb(255,244,222)"></stop></linearGradient><linearGradient id="__lottie_element_1411" spreadMethod="pad" gradientUnits="userSpaceOnUse" x1="33.84280014038086" y1="38.81370162963867" x2="72.50029754638672" y2="38.81370162963867"><stop offset="0%" stop-color="rgb(255,244,222)"></stop><stop offset="100%" stop-color="rgb(255,243,219)"></stop></linearGradient></defs><g clip-path="url(#__lottie_element_1393)"><g transform="matrix(1,0,0,1,0,0)" opacity="1" style="display: block;"><g opacity="1" transform="matrix(1,0,0,1,0,0)"><path fill="rgb(91,43,0)" fill-opacity="1" d=" M19.416500091552734,74.58979797363281 C19.416500091552734,74.58979797363281 30.645999908447266,79.71710205078125 30.645999908447266,79.71710205078125 C31.401500701904297,79.41020202636719 30.63360023498535,81.59870147705078 29.434999465942383,84.3572998046875 C27.691699981689453,83.67230224609375 26.37579917907715,82.39569854736328 24.943899154663086,81.35379791259766 C23.568599700927734,80.35299682617188 21.394399642944336,80.98739624023438 19.350799560546875,82.25 C19.350799560546875,82.25 16.000200271606445,78.18329620361328 16.000200271606445,78.18329620361328 C16.000200271606445,78.18329620361328 19.416500091552734,74.58979797363281 19.416500091552734,74.58979797363281 C19.416500091552734,74.58979797363281 19.416500091552734,74.58979797363281 19.416500091552734,74.58979797363281z"></path></g><g opacity="1" transform="matrix(1,0,0,1,0,0)"><path fill="rgb(91,43,0)" fill-opacity="1" d=" M27.36590003967285,81.53479766845703 C27.36590003967285,81.53479766845703 16.000099182128906,98.73970031738281 16.000099182128906,98.73970031738281 C16.000099182128906,98.73970031738281 19.679399490356445,102 19.679399490356445,102 C19.679399490356445,102 72.28119659423828,78.65550231933594 72.28119659423828,78.65550231933594 C72.28119659423828,78.65550231933594 72.28119659423828,56.64590072631836 72.28119659423828,56.64590072631836 C72.28119659423828,56.64590072631836 27.36590003967285,81.53479766845703 27.36590003967285,81.53479766845703 C27.36590003967285,81.53479766845703 27.36590003967285,81.53479766845703 27.36590003967285,81.53479766845703z"></path></g><g opacity="1" transform="matrix(1,0,0,1,0,0)"><path fill="url(#__lottie_element_1397)" fill-opacity="1" d=" M16.00040054321289,75.08989715576172 C16.00040054321289,75.08989715576172 16.00040054321289,78.18340301513672 16.00040054321289,78.18340301513672 C18.04400062561035,76.9207992553711 20.21820068359375,76.28630065917969 21.5935001373291,77.28720092773438 C23.307100296020508,78.5342025756836 24.85219955444336,80.12039947509766 27.165599822998047,80.62200164794922 C27.208799362182617,80.63140106201172 27.25189971923828,80.64089965820312 27.29560089111328,80.64949798583984 C27.25189971923828,80.70279693603516 27.208900451660156,80.75640106201172 27.165800094604492,80.80999755859375 C24.856000900268555,83.67870330810547 23.316099166870117,86.84439849853516 21.60700035095215,89.84390258789062 C20.335500717163086,92.02449798583984 18.369400024414062,93.72329711914062 16.018199920654297,94.67269897460938 C16.018199920654297,94.67269897460938 16.00040054321289,94.44339752197266 16.00040054321289,94.44339752197266 C16.00040054321289,94.44339752197266 16.000099182128906,98.73970031738281 16.000099182128906,98.73970031738281 C16.000099182128906,98.73970031738281 72.28130340576172,73.76210021972656 72.28130340576172,73.76210021972656 C72.28130340576172,73.76210021972656 72.28130340576172,50.46329879760742 72.28130340576172,50.46329879760742 C72.28130340576172,50.46329879760742 16.00040054321289,75.08989715576172 16.00040054321289,75.08989715576172 C16.00040054321289,75.08989715576172 16.00040054321289,75.08989715576172 16.00040054321289,75.08989715576172z"></path></g><g opacity="1" transform="matrix(1,0,0,1,0,0)"><path fill="url(#__lottie_element_1398)" fill-opacity="1" d=" M16,30.51490020751953 C16,30.51490020751953 16,53.48310089111328 16,53.48310089111328 C16,53.48310089111328 125.32099914550781,102 125.32099914550781,102 C125.32099914550781,102 129,98.73930358886719 129,98.73930358886719 C129,98.73930358886719 117.63400268554688,81.5344009399414 117.63400268554688,81.5344009399414 C117.63400268554688,81.5344009399414 19.67930030822754,27.254499435424805 19.67930030822754,27.254499435424805 C19.67930030822754,27.254499435424805 16,30.51490020751953 16,30.51490020751953 C16,30.51490020751953 16,30.51490020751953 16,30.51490020751953z"></path></g><g opacity="1" transform="matrix(1,0,0,1,0,0)"><path fill="url(#__lottie_element_1399)" fill-opacity="1" d=" M19.67930030822754,27.254499435424805 C19.67930030822754,27.254499435424805 16,30.51490020751953 16,30.51490020751953 C16,30.51490020751953 16,53.37110137939453 16,53.37110137939453 C16,53.37110137939453 35.15340042114258,35.8291015625 35.15340042114258,35.8291015625 C35.15340042114258,35.8291015625 19.67930030822754,27.254499435424805 19.67930030822754,27.254499435424805 C19.67930030822754,27.254499435424805 19.67930030822754,27.254499435424805 19.67930030822754,27.254499435424805z"></path></g><g opacity="1" transform="matrix(1,0,0,1,0,0)"><path fill="rgb(91,43,0)" fill-opacity="1" d=" M125.58399963378906,74.5895004272461 C125.58399963378906,74.5895004272461 114.35399627685547,79.7166976928711 114.35399627685547,79.7166976928711 C113.5989990234375,79.40979766845703 114.36699676513672,81.59829711914062 115.56500244140625,84.35690307617188 C117.30799865722656,83.6718978881836 118.6240005493164,82.39540100097656 120.05599975585938,81.35340118408203 C121.43199920654297,80.35260009765625 123.60600280761719,80.98699951171875 125.64900207519531,82.24970245361328 C125.64900207519531,82.24970245361328 129,78.18289947509766 129,78.18289947509766 C129,78.18289947509766 125.58399963378906,74.5895004272461 125.58399963378906,74.5895004272461 C125.58399963378906,74.5895004272461 125.58399963378906,74.5895004272461 125.58399963378906,74.5895004272461z"></path></g><g opacity="1" transform="matrix(1,0,0,1,0,0)"><path fill="rgb(91,43,0)" fill-opacity="1" d=" M117.63400268554688,81.5344009399414 C117.63400268554688,81.5344009399414 35.15340042114258,35.8291015625 35.15340042114258,35.8291015625 C35.15340042114258,35.8291015625 16,53.37099838256836 16,53.37099838256836 C16,53.37099838256836 16,53.483001708984375 16,53.483001708984375 C16,53.483001708984375 125.32099914550781,102 125.32099914550781,102 C125.32099914550781,102 129,98.73919677734375 129,98.73919677734375 C129,98.73919677734375 117.63400268554688,81.5344009399414 117.63400268554688,81.5344009399414 C117.63400268554688,81.5344009399414 117.63400268554688,81.5344009399414 117.63400268554688,81.5344009399414z"></path></g><g opacity="1" transform="matrix(1,0,0,1,0,0)"><path fill="url(#__lottie_element_1400)" fill-opacity="1" d=" M128.98199462890625,94.67220306396484 C126.63099670410156,93.722900390625 124.66500091552734,92.02410125732422 123.39299774169922,89.84349822998047 C121.68399810791016,86.84400177001953 120.14399719238281,83.67829895019531 117.83399963378906,80.80960083007812 C117.79100036621094,80.75599670410156 117.74800109863281,80.70240020751953 117.70500183105469,80.64910125732422 C117.74800109863281,80.6405029296875 117.79100036621094,80.63099670410156 117.83499908447266,80.62159729003906 C120.14800262451172,80.12000274658203 121.69300079345703,78.53369903564453 123.40699768066406,77.28669738769531 C124.78199768066406,76.28589630126953 126.95600128173828,76.92040252685547 129,78.18299865722656 C129,78.18299865722656 129,75.0895004272461 129,75.0895004272461 C129,75.0895004272461 19.67930030822754,27.254499435424805 19.67930030822754,27.254499435424805 C19.67930030822754,27.254499435424805 19.67930030822754,50.222801208496094 19.67930030822754,50.222801208496094 C19.67930030822754,50.222801208496094 129,98.73919677734375 129,98.73919677734375 C129,98.73919677734375 129,94.44290161132812 129,94.44290161132812 C129,94.44290161132812 128.98199462890625,94.67220306396484 128.98199462890625,94.67220306396484 C128.98199462890625,94.67220306396484 128.98199462890625,94.67220306396484 128.98199462890625,94.67220306396484z"></path></g><g opacity="1" transform="matrix(1,0,0,1,0,0)"><path fill="url(#__lottie_element_1401)" fill-opacity="1" d=" M129,30.514799118041992 C129,30.514799118041992 125.32099914550781,27.2544002532959 125.32099914550781,27.2544002532959 C125.32099914550781,27.2544002532959 108.10399627685547,36.79460144042969 108.10399627685547,36.79460144042969 C108.10399627685547,36.79460144042969 129,53.237300872802734 129,53.237300872802734 C129,53.237300872802734 129,30.514799118041992 129,30.514799118041992 C129,30.514799118041992 129,30.514799118041992 129,30.514799118041992z"></path></g><g opacity="1" transform="matrix(1,0,0,1,0,0)"><path fill="rgb(91,43,0)" fill-opacity="1" d=" M108.10399627685547,36.79460144042969 C108.10399627685547,36.79460144042969 72.28109741210938,56.645301818847656 72.28109741210938,56.645301818847656 C72.28109741210938,56.645301818847656 72.28109741210938,78.65489959716797 72.28109741210938,78.65489959716797 C72.28109741210938,78.65489959716797 129,53.4828987121582 129,53.4828987121582 C129,53.4828987121582 129,53.237300872802734 129,53.237300872802734 C129,53.237300872802734 108.10399627685547,36.79460144042969 108.10399627685547,36.79460144042969 C108.10399627685547,36.79460144042969 108.10399627685547,36.79460144042969 108.10399627685547,36.79460144042969z"></path></g><g opacity="1" transform="matrix(1,0,0,1,0,0)"><path fill="url(#__lottie_element_1402)" fill-opacity="1" d=" M125.32099914550781,27.2544002532959 C125.32099914550781,27.2544002532959 72.28109741210938,50.4630012512207 72.28109741210938,50.4630012512207 C72.28109741210938,50.4630012512207 72.28109741210938,73.76180267333984 72.28109741210938,73.76180267333984 C72.28109741210938,73.76180267333984 125.32099914550781,50.222599029541016 125.32099914550781,50.222599029541016 C125.32099914550781,50.222599029541016 125.32099914550781,27.2544002532959 125.32099914550781,27.2544002532959 C125.32099914550781,27.2544002532959 125.32099914550781,27.2544002532959 125.32099914550781,27.2544002532959z"></path></g><g opacity="1" transform="matrix(1,0,0,1,0,0)"><path fill="url(#__lottie_element_1403)" fill-opacity="1" d=" M24.016199111938477,50.463199615478516 C24.016199111938477,50.463199615478516 69.08470153808594,70.48159790039062 69.08470153808594,70.48159790039062 C69.08470153808594,70.48159790039062 71.45800018310547,69.47090148925781 75.85150146484375,70.48159790039062 C82.61830139160156,67.54720306396484 120.45999908447266,50.463199615478516 120.45999908447266,50.463199615478516 C120.45999908447266,50.463199615478516 120.45999908447266,24.96500015258789 120.45999908447266,24.96500015258789 C120.45999908447266,24.96500015258789 115.77400207519531,20.922000885009766 115.77400207519531,20.922000885009766 C115.77400207519531,20.922000885009766 72.50090026855469,40.35459899902344 72.50090026855469,40.35459899902344 C72.50090026855469,40.35459899902344 28.81209945678711,21.18280029296875 28.81209945678711,21.18280029296875 C28.81209945678711,21.18280029296875 23.687700271606445,24.704200744628906 23.687700271606445,24.704200744628906 C23.687700271606445,24.704200744628906 24.016199111938477,50.463199615478516 24.016199111938477,50.463199615478516 C24.016199111938477,50.463199615478516 24.016199111938477,50.463199615478516 24.016199111938477,50.463199615478516z"></path></g><g opacity="1" transform="matrix(1,0,0,1,0,0)"><path fill="url(#__lottie_element_1404)" fill-opacity="1" d=" M120.45999908447266,24.965099334716797 C120.45999908447266,24.965099334716797 115.77300262451172,20.922000885009766 115.77300262451172,20.922000885009766 C115.77300262451172,20.922000885009766 91.12049865722656,31.99250030517578 91.12049865722656,31.99250030517578 C91.12049865722656,31.99250030517578 120.45999908447266,50.39339828491211 120.45999908447266,50.39339828491211 C120.45999908447266,50.39339828491211 120.45999908447266,24.965099334716797 120.45999908447266,24.965099334716797 C120.45999908447266,24.965099334716797 120.45999908447266,24.965099334716797 120.45999908447266,24.965099334716797z"></path></g><g opacity="1" transform="matrix(1,0,0,1,0,0)"><path fill="url(#__lottie_element_1405)" fill-opacity="1" d=" M72.50039672851562,40.35449981689453 C72.50039672851562,40.35449981689453 58.81740188598633,34.350101470947266 58.81740188598633,34.350101470947266 C58.81740188598633,34.350101470947266 24.01490020751953,50.40959930419922 24.01490020751953,50.40959930419922 C24.01490020751953,50.40959930419922 24.015600204467773,50.463199615478516 24.015600204467773,50.463199615478516 C24.015600204467773,50.463199615478516 69.08409881591797,70.48159790039062 69.08409881591797,70.48159790039062 C70.27850341796875,70.08709716796875 71.54180145263672,69.94029998779297 72.79570007324219,70.05000305175781 C72.79570007324219,70.05000305175781 72.79570007324219,40.221900939941406 72.79570007324219,40.221900939941406 C72.79570007324219,40.221900939941406 72.50039672851562,40.35449981689453 72.50039672851562,40.35449981689453 C72.50039672851562,40.35449981689453 72.50039672851562,40.35449981689453 72.50039672851562,40.35449981689453z"></path></g><g opacity="1" transform="matrix(1,0,0,1,0,0)"><path fill="url(#__lottie_element_1406)" fill-opacity="1" d=" M91.12079620361328,31.992599487304688 C91.12079620361328,31.992599487304688 72.79570007324219,40.221900939941406 72.79570007324219,40.221900939941406 C72.79570007324219,40.221900939941406 72.79570007324219,70.05000305175781 72.79570007324219,70.05000305175781 C73.82510375976562,70.10169982910156 74.8478012084961,70.24610137939453 75.85089874267578,70.48149871826172 C82.6176986694336,67.5470962524414 120.45899963378906,50.46310043334961 120.45899963378906,50.46310043334961 C120.45899963378906,50.46310043334961 120.45899963378906,50.39360046386719 120.45899963378906,50.39360046386719 C120.45899963378906,50.39360046386719 91.12079620361328,31.992599487304688 91.12079620361328,31.992599487304688 C91.12079620361328,31.992599487304688 91.12079620361328,31.992599487304688 91.12079620361328,31.992599487304688z"></path></g><g opacity="1.0000003186090076" transform="matrix(1.0000003576278687,0,0,1.0000003576278687,0,0)"><path fill="url(#__lottie_element_1407)" fill-opacity="1" d=" M28.811500549316406,21.183000564575195 C28.811500549316406,21.183000564575195 23.686800003051758,24.704299926757812 23.686800003051758,24.704299926757812 C23.686800003051758,24.704299926757812 24.01460075378418,50.4093017578125 24.01460075378418,50.4093017578125 C24.01460075378418,50.4093017578125 58.81740188598633,34.349998474121094 58.81740188598633,34.349998474121094 C58.81740188598633,34.349998474121094 28.811500549316406,21.183000564575195 28.811500549316406,21.183000564575195 C28.811500549316406,21.183000564575195 28.811500549316406,21.183000564575195 28.811500549316406,21.183000564575195z"></path></g><g opacity="1" transform="matrix(1,0,0,1,0,0)"><path fill="url(#__lottie_element_1408)" fill-opacity="1" d=" M72.50060272216797,64.62689971923828 C72.50060272216797,64.62689971923828 115.02799987792969,46.962398529052734 115.02799987792969,46.962398529052734 C115.02799987792969,46.962398529052734 115.77300262451172,20.922000885009766 115.77300262451172,20.922000885009766 C115.77300262451172,20.922000885009766 72.50060272216797,40.35419845581055 72.50060272216797,40.35419845581055 C72.50060272216797,40.35419845581055 28.811500549316406,21.182899475097656 28.811500549316406,21.182899475097656 C28.811500549316406,21.182899475097656 30.059600830078125,47.65769958496094 30.059600830078125,47.65769958496094 C30.059600830078125,47.65769958496094 72.50060272216797,64.62689971923828 72.50060272216797,64.62689971923828 C72.50060272216797,64.62689971923828 72.50060272216797,64.62689971923828 72.50060272216797,64.62689971923828z"></path></g><g opacity="1.0000041538003064" transform="matrix(1.0000041723251343,0,0,1.0000041723251343,0,0)"><path fill="url(#__lottie_element_1409)" fill-opacity="1" d=" M72.50050354003906,64.62699890136719 C72.50050354003906,64.62699890136719 72.50050354003906,40.35430145263672 72.50050354003906,40.35430145263672 C72.50050354003906,40.35430145263672 28.811500549316406,21.183000564575195 28.811500549316406,21.183000564575195 C28.811500549316406,21.183000564575195 30.059600830078125,47.657798767089844 30.059600830078125,47.657798767089844 C30.059600830078125,47.657798767089844 72.50050354003906,64.62699890136719 72.50050354003906,64.62699890136719 C72.50050354003906,64.62699890136719 72.50050354003906,64.62699890136719 72.50050354003906,64.62699890136719z"></path></g><g opacity="1" transform="matrix(1,0,0,1,0,0)"><path fill="url(#__lottie_element_1410)" fill-opacity="1" d=" M72.50039672851562,40.35449981689453 C72.50039672851562,40.35449981689453 98.34259796142578,28.097000122070312 109.2699966430664,12.999899864196777 C110.5009994506836,28.63450050354004 110.697998046875,41.04439926147461 110.697998046875,41.04439926147461 C110.697998046875,41.04439926147461 92.97730255126953,58.53559875488281 72.50039672851562,64.627197265625 C72.50039672851562,64.627197265625 72.50039672851562,40.35449981689453 72.50039672851562,40.35449981689453 C72.50039672851562,40.35449981689453 72.50039672851562,40.35449981689453 72.50039672851562,40.35449981689453z"></path></g><g opacity="1" transform="matrix(1,0,0,1,0,0)"><path fill="url(#__lottie_element_1411)" fill-opacity="1" d=" M72.50029754638672,40.35459899902344 C72.50029754638672,40.35459899902344 45.17449951171875,28.976600646972656 34.15530014038086,13 C33.2692985534668,26.484800338745117 34.54909896850586,44.65999984741211 34.54909896850586,44.65999984741211 C34.54909896850586,44.65999984741211 55.5181999206543,60.1968994140625 72.50029754638672,64.6272964477539 C72.50029754638672,64.6272964477539 72.50029754638672,40.35459899902344 72.50029754638672,40.35459899902344 C72.50029754638672,40.35459899902344 72.50029754638672,40.35459899902344 72.50029754638672,40.35459899902344z"></path></g><g opacity="1.0000050449646163" transform="matrix(1.0000050067901611,0,0,1.0000050067901611,0,0)"><path fill="rgb(255,217,0)" fill-opacity="1" d=" M73.48480224609375,39.87189865112305 C73.48480224609375,39.87189865112305 73.18939971923828,62.78450012207031 73.48480224609375,64.32440185546875 C73.78009796142578,65.8644027709961 73.82929992675781,84.3572998046875 73.82929992675781,84.3572998046875 C73.82929992675781,84.3572998046875 72.28130340576172,83.28230285644531 72.28130340576172,83.28230285644531 C72.28130340576172,83.28230285644531 70.35910034179688,84.3572998046875 70.35910034179688,84.3572998046875 C70.35910034179688,84.3572998046875 70.87590026855469,66.05979919433594 70.8021011352539,63.714599609375 C70.72820281982422,61.36940002441406 71.68810272216797,39.969600677490234 71.68810272216797,39.969600677490234 C72.26589965820312,39.770301818847656 72.88849639892578,39.73649978637695 73.48480224609375,39.87189865112305 C73.48480224609375,39.87189865112305 73.48480224609375,39.87189865112305 73.48480224609375,39.87189865112305z"></path></g><g opacity="1" transform="matrix(1,0,0,1,0,0)"><path fill="rgb(255,188,0)" fill-opacity="1" d=" M70.81659698486328,64.15619659423828 C70.8093032836914,68.34600067138672 70.35910034179688,84.3572998046875 70.35910034179688,84.3572998046875 C70.35910034179688,84.3572998046875 72.28130340576172,83.28230285644531 72.28130340576172,83.28230285644531 C72.28130340576172,83.28230285644531 73.82929992675781,84.3572998046875 73.82929992675781,84.3572998046875 C73.82929992675781,84.3572998046875 73.75869750976562,66.71260070800781 73.48480224609375,64.32450103759766 C73.48480224609375,64.32450103759766 70.81659698486328,64.15619659423828 70.81659698486328,64.15619659423828 C70.81659698486328,64.15619659423828 70.81659698486328,64.15619659423828 70.81659698486328,64.15619659423828z"></path></g></g></g></svg>